# xmcd CD database file
#
# Track frame offsets:
#	150
#	13882
#	28162
#	44786
#	63784
#	77632
#	107853
#	125973
#	137263
#	154541
#	170190
#	190929
#	215424
#	232347
#	246624
#	273257
#
# Disc length: 3802 seconds
#
# Revision: 0
# Processed by: cddbd v1.5.2PL0 Copyright (c) Steve Scherf et al.
# Submitted via: CDex 1.70beta2
#
DISCID=f30ed810
DTITLE=Sax-O-Boogie - We love to play that Boogie
DYEAR=2009
DGENRE=Jazz
TTITLE0=Rolling through Bad Pyrmont
TTITLE1=I'm movin' on
TTITLE2=We love to play
TTITLE3=Which way Steinway
TTITLE4=Berlin Boogie
TTITLE5=Same old Blues
TTITLE6=Marry Me
TTITLE7=Pretty little Baby
TTITLE8=Dob's Boogie
TTITLE9=Sax-O-Fun
TTITLE10=Blues went out my Door
TTITLE11=Deep Down to Blues
TTITLE12=How do you feel
TTITLE13=(Ain't that a) rockin' girl
TTITLE14=After hours
TTITLE15=Sax-O-Boogie
EXTD=YEAR: 2009
EXTT0=
EXTT1=
EXTT2=
EXTT3=
EXTT4=
EXTT5=
EXTT6=
EXTT7=
EXTT8=
EXTT9=
EXTT10=
EXTT11=
EXTT12=
EXTT13=
EXTT14=
EXTT15=
PLAYORDER=
